<?xml version="1.0" encoding="utf-8"?>
<!-- Generator: Adobe Illustrator 14.0.0, SVG Export Plug-In . SVG Version: 6.00 Build 43363)  -->
<svg version="1.2" baseProfile="tiny" id="svg2" xmlns:svg="http://www.w3.org/2000/svg"
 xmlns="http://www.w3.org/2000/svg" xmlns:xlink="http://www.w3.org/1999/xlink" x="0px" y="0px" width="950px" height="620px"
 viewBox="0 0 950 620" xml:space="preserve">
<path id="italy" d="M472.27,196.98l-0.62,1.57l0.17,1.71l2.39,2.79l3.76-0.13l8.3,9.64l5.18,1.5l3.06,2.89l0.73,6.59l1.64-0.96l1.42-3.59l-0.35-2.58l2.43-0.22l0.35-1.46l-6.85-3.28l-6.5-6.39l-2.59-3.82l-0.63-3.63l3.31-0.79l-0.85-2.39l-2.03-1.71l-1.75-0.08l-2.44,0.67l-2.3,3.22l-1.39,0.92l-2.15-1.32L472.27,196.98L472.27,196.98z M477.56,213.38l-2.65,1.34l0.35,5.17l2.12,0.36l1.59-1.52v-4.9L477.56,213.38L477.56,213.38z M492.44,223.02l-1.45-0.78l-4.95,0.78l0.17,1.34l4.45,2.24l0.67,0.73l1.17,0.17L492.44,223.02L492.44,223.02z"/>
</svg>